<?xml version="1.0" encoding="utf-8"?>
<!-- Generator: Adobe Illustrator 26.4.1, SVG Export Plug-In . SVG Version: 6.00 Build 0)  -->
<svg version="1.1" id="Layer_1" xmlns="http://www.w3.org/2000/svg" xmlns:xlink="http://www.w3.org/1999/xlink" x="0px" y="0px"
	 viewBox="0 0 226 124.4" style="enable-background:new 0 0 226 124.4;" xml:space="preserve">
<style type="text/css">
	.st0{fill:url(#App_Icon_Placeholder_00000138565717487595353500000005606549975843869621_);}
	.st1{fill:#D8D6CD;}
	.st2{fill:#EDECE8;}
</style>
<symbol  id="Icon" viewBox="-512 -512 1024 1024">
	<g>
		
			<linearGradient id="App_Icon_Placeholder_00000066516837255937567000000006106325652362080930_" gradientUnits="userSpaceOnUse" x1="-443.9225" y1="443.9238" x2="443.9244" y2="-443.9231">
			<stop  offset="0" style="stop-color:#226F9D"/>
			<stop  offset="1" style="stop-color:#22A89D"/>
		</linearGradient>
		
			<path id="App_Icon_Placeholder_00000183948493694884583120000012875910455185012645_" style="fill:url(#App_Icon_Placeholder_00000066516837255937567000000006106325652362080930_);" d="
			M-155-512h310c102.8,0,154.2,0,209.5,17.5c60.4,22,108,69.6,130,130C512-309.2,512-257.8,512-155v310c0,102.8,0,154.2-17.5,209.5
			c-22,60.4-69.6,108-130,130C309.2,512,257.8,512,155,512h-310c-102.8,0-154.2,0-209.5-17.5c-60.4-22-108-69.6-130-130
			C-512,309.2-512,257.8-512,155v-310c0-102.8,0-154.2,17.5-209.5c22-60.4,69.6-108,130-130C-309.2-512-257.8-512-155-512L-155-512"
			/>
		<path class="st1" d="M-133.9-414.8c10.7-3.3,23.4,4.7,24.3,16c0.6,52.8,0.2,105.6,0.3,158.5v361.6c-0.2,7,3.5,14.3,9.6,17.7
			c29.8,17.5,59.9,34.8,89.7,52.3c6,3.3,13.6,4.4,19.6,0.6c30.6-17.9,61.3-35.6,91.8-53.8c6.4-3.6,8.8-11.3,8.8-18.3V17.6
			c0.2-7.4-3.6-14.7-10-18.3C71.2-17.5,42.4-34.4,13.5-51C7.1-54.8,0.4-60.6,0.2-68.7c-0.2-50,0-100.2,0-150.2
			c0-13.2,15.8-21.9,27.6-16.9c79.3,46.9,159.1,92.9,238.6,139.7c6,3.8,8.6,11,8.6,17.7v295.6c0.2,7-3.3,14.3-9.6,17.9
			c-83.1,48.8-166.3,97-249.4,145.8c-4.5,2.7-9.1,6.1-14.7,6c-5.2,0.5-9.9-1.7-14-4.5c-83.9-49.1-167.7-98-251.6-147
			c-6-3.5-9.9-10.2-9.9-16.9V-322c0.2-6.4,3.1-13.3,8.8-16.8c42.5-24.8,84.8-49.7,127.3-74.3C-136.6-413.7-135.3-414.5-133.9-414.8
			L-133.9-414.8z"/>
	</g>
</symbol>
<g id="App_Icon_and_Badge">
	<g id="Main-2">
		
			<use xlink:href="#Icon"  width="1024" height="1024" x="-512" y="-512" transform="matrix(5.996094e-02 0 0 5.996094e-02 113 41.2222)" style="overflow:visible;"/>
	</g>
</g>
<g>
	<path class="st2" d="M25.4,88.6l8.5,22.5l-6,0.6l-1.6-4.8h-7.9l-1.6,4.5h-6.1l8.5-22.8H25.4z M22.3,95.9l-2.2,6.2h4.5L22.3,95.9z"
		/>
	<path class="st2" d="M48,100.6h-4.8v4c0,0.7,0.2,1.2,0.5,1.6c0.3,0.4,0.8,0.6,1.4,0.6c0.3,0,0.7-0.1,1.1-0.2
		c0.4-0.1,0.8-0.3,1.2-0.5l1.7,4.2c-0.3,0.2-0.7,0.4-1.2,0.7c-0.5,0.2-1.1,0.4-1.6,0.6c-0.6,0.1-1.2,0.2-1.7,0.2
		c-1.3,0-2.5-0.2-3.7-0.7s-2.1-1.2-2.8-2.2c-0.7-1-1.1-2.2-1.1-3.6v-4.7h-2.5v-4.8h2.5v-4.4l6.1-0.8v5.2h4.3L48,100.6z"/>
	<path class="st2" d="M59.3,111.8c-1.7,0-3.3-0.3-4.7-0.9c-1.4-0.6-2.5-1.6-3.2-2.8c-0.8-1.3-1.2-2.9-1.2-4.8c0-1.8,0.4-3.4,1.2-4.7
		c0.8-1.3,1.9-2.3,3.3-2.9c1.4-0.7,2.9-1,4.6-1c1.8,0,3.4,0.3,4.8,1c1.4,0.7,2.5,1.6,3.3,2.9c0.8,1.3,1.2,2.9,1.2,4.9
		c0,1.8-0.4,3.3-1.3,4.6c-0.8,1.3-2,2.2-3.4,2.8C62.6,111.5,61.1,111.8,59.3,111.8z M59.4,106.8c0.6,0,1.2-0.1,1.6-0.4
		c0.4-0.3,0.8-0.6,1-1.2c0.2-0.5,0.4-1.2,0.4-1.9c0-0.7-0.1-1.4-0.3-2c-0.2-0.6-0.5-1-1-1.4c-0.4-0.3-0.9-0.5-1.6-0.5
		c-0.6,0-1.2,0.1-1.6,0.4c-0.4,0.3-0.8,0.7-1,1.3c-0.2,0.5-0.4,1.2-0.4,2c0,0.7,0.1,1.3,0.3,1.9c0.2,0.5,0.5,1,1,1.3
		C58.3,106.7,58.8,106.8,59.4,106.8z"/>
	<path class="st2" d="M71,111.4V95.2h3.6l1.1,1.7c0.5-0.3,1.2-0.7,1.8-1c0.7-0.3,1.4-0.6,2.2-0.9c0.8-0.2,1.6-0.3,2.4-0.3
		c1.4,0,2.6,0.3,3.4,0.8c0.8,0.5,1.4,1.3,1.8,2.2c0.4,0.9,0.5,2,0.5,3.2v10.5h-6.1v-9.9c0-0.3,0-0.7-0.1-1c-0.1-0.3-0.2-0.5-0.4-0.7
		c-0.2-0.2-0.6-0.3-1.1-0.3c-0.2,0-0.5,0.1-0.9,0.2c-0.4,0.1-0.8,0.2-1.2,0.4c-0.4,0.1-0.8,0.3-1.1,0.4v10.9H71z M86.5,96.8
		c0.5-0.3,1.2-0.7,1.8-1c0.7-0.3,1.4-0.6,2.2-0.9c0.8-0.2,1.6-0.3,2.4-0.3c1.4,0,2.6,0.3,3.4,0.8c0.8,0.5,1.4,1.3,1.8,2.2
		c0.4,0.9,0.5,2,0.5,3.2v10.5h-6.1v-9.9c0-0.3,0-0.7-0.1-1c-0.1-0.3-0.2-0.5-0.4-0.7c-0.2-0.2-0.6-0.3-1.1-0.3
		c-0.2,0-0.5,0.1-0.9,0.2c-0.4,0.1-0.8,0.2-1.2,0.4c-0.4,0.1-0.8,0.3-1.1,0.4L86.5,96.8z"/>
	<path class="st2" d="M102.6,92c-0.6-0.6-1-1.4-1-2.3c0-0.9,0.3-1.7,1-2.4c0.6-0.7,1.4-1,2.3-1c0.9,0,1.7,0.3,2.4,1
		c0.7,0.7,1,1.4,1,2.4c0,0.9-0.3,1.7-1,2.3c-0.7,0.6-1.4,1-2.4,1C104,93,103.2,92.6,102.6,92z M101.9,111.4V95.2h6.1v16.3H101.9z"/>
	<path class="st2" d="M124.8,110.2c-0.6,0.5-1.3,0.9-2,1.1c-0.7,0.2-1.4,0.4-2,0.5c-0.6,0.1-1.2,0.1-1.6,0.1c-1.7,0-3.3-0.3-4.6-1
		c-1.3-0.7-2.4-1.6-3.1-2.9s-1.1-2.8-1.1-4.6c0-1.8,0.4-3.4,1.1-4.7c0.7-1.3,1.8-2.3,3.1-3s2.9-1,4.6-1c0.4,0,1,0,1.6,0.1
		c0.6,0.1,1.3,0.2,2,0.5c0.7,0.2,1.4,0.6,2,1.1l-1.7,4.2c-0.6-0.3-1.2-0.6-1.7-0.7c-0.5-0.1-1-0.2-1.6-0.2c-0.5,0-1.1,0.2-1.5,0.5
		c-0.5,0.3-0.9,0.7-1.2,1.3c-0.3,0.6-0.5,1.2-0.5,2c0,0.8,0.2,1.4,0.5,1.9c0.3,0.5,0.7,0.9,1.2,1.2c0.5,0.3,1,0.4,1.5,0.4
		c0.5,0,1-0.1,1.5-0.2c0.5-0.1,1.1-0.4,1.7-0.7L124.8,110.2z"/>
	<path class="st2" d="M135.5,105.4c0.4,0.2,0.9,0.4,1.5,0.7c0.6,0.2,1.3,0.4,1.9,0.6c0.7,0.1,1.3,0.2,1.8,0.2c0.6,0,1.2-0.1,1.6-0.3
		c0.4-0.2,0.8-0.4,1-0.7c0.2-0.3,0.3-0.6,0.3-0.8c0-0.3-0.2-0.5-0.5-0.8c-0.3-0.3-0.8-0.6-1.3-0.9c-0.5-0.3-1.1-0.6-1.7-1
		c-0.7-0.4-1.5-0.9-2.3-1.4c-0.8-0.5-1.5-1-2.2-1.6c-0.7-0.6-1.3-1.3-1.7-2.1c-0.4-0.8-0.6-1.6-0.6-2.6c0-1.3,0.4-2.4,1.1-3.4
		c0.7-1,1.7-1.8,2.9-2.3c1.3-0.6,2.8-0.9,4.5-0.9c1.1,0,2.3,0.2,3.5,0.5c1.2,0.3,2.3,0.8,3.2,1.4l-1.8,4.1c-0.8-0.3-1.5-0.5-2-0.6
		c-0.5-0.1-1-0.2-1.4-0.3c-0.4-0.1-0.9-0.1-1.4-0.1c-0.7,0-1.2,0.2-1.6,0.5c-0.4,0.3-0.6,0.7-0.6,1.1c0,0.3,0.2,0.6,0.5,0.9
		c0.3,0.3,0.7,0.5,1.3,0.8c0.5,0.3,1.1,0.6,1.7,0.9c0.8,0.5,1.6,1,2.4,1.5c0.8,0.5,1.6,1.1,2.2,1.7c0.7,0.6,1.2,1.3,1.6,2.1
		c0.4,0.7,0.6,1.6,0.6,2.5c0,1.3-0.4,2.4-1.1,3.4c-0.7,1-1.8,1.8-3.1,2.4c-1.4,0.6-3,0.9-4.9,0.9c-0.6,0-1.2,0-1.9-0.1
		c-0.7-0.1-1.4-0.2-2-0.4c-0.7-0.2-1.3-0.4-1.9-0.6c-0.6-0.2-1.1-0.5-1.6-0.7L135.5,105.4z"/>
	<path class="st2" d="M166.6,111.4L164,103l-2.5,8.4H156l-5-15.2l5.6-1.6l2.3,9.8l2.2-9.2h5.7l2.4,9.2l2.1-9.2h6.1l-5.4,16.3H166.6z
		"/>
	<path class="st2" d="M179.5,96.1c0.6-0.3,1.3-0.5,2-0.8c0.8-0.2,1.6-0.4,2.5-0.6c0.9-0.1,1.8-0.2,2.7-0.2c1.5,0,2.7,0.3,3.7,0.8
		c1,0.6,1.8,1.3,2.3,2.3c0.5,1,0.8,2.2,0.8,3.6v10.1h-2.9l-1.7-1.7c-0.5,0.6-1.1,1.2-1.7,1.5c-0.6,0.4-1.3,0.5-2,0.5
		c-2.1,0-3.6-0.5-4.6-1.5c-1-1-1.5-2.4-1.5-4.1c0-1.8,0.6-3,1.8-3.7c1.2-0.7,2.7-1.1,4.6-1.1h1.9l0-0.2c-0.1-0.6-0.4-1-0.7-1.3
		c-0.4-0.3-0.8-0.4-1.3-0.4c-0.6,0-1.2,0.1-2,0.3c-0.8,0.2-1.5,0.4-2.1,0.7L179.5,96.1z M184.2,106.7c0.1,0.2,0.2,0.3,0.4,0.4
		c0.2,0.1,0.4,0.2,0.6,0.2c0.4,0,0.7-0.1,1.1-0.2c0.4-0.2,0.7-0.4,1.1-0.7v-1.5h-1.9c-0.4,0-0.7,0.1-1,0.4c-0.3,0.2-0.4,0.6-0.4,0.9
		C184.1,106.3,184.1,106.5,184.2,106.7z"/>
	<path class="st2" d="M196.8,118.8V95.2h3l3,3v20.2L196.8,118.8z M199.2,97.6c0.4-0.5,0.9-1,1.6-1.4c0.6-0.5,1.3-0.8,2.1-1.1
		c0.8-0.3,1.6-0.4,2.4-0.4c1.6,0,3,0.3,4.3,0.9c1.3,0.6,2.2,1.5,3,2.8c0.7,1.3,1.1,2.8,1.1,4.8c0,1.9-0.4,3.5-1.1,4.8
		c-0.7,1.3-1.7,2.3-3,2.9c-1.3,0.6-2.8,1-4.5,1c-0.7,0-1.3-0.1-2-0.3c-0.7-0.2-1.3-0.5-1.9-1c-0.6-0.4-1.3-1-1.9-1.7l1.7-3.6
		c0.6,0.6,1.3,1.1,1.9,1.4c0.6,0.3,1.2,0.5,1.8,0.5c0.5,0,1-0.2,1.4-0.5c0.4-0.3,0.7-0.8,1-1.4c0.2-0.6,0.4-1.3,0.4-2.1
		s-0.1-1.5-0.4-2.1c-0.2-0.6-0.6-1-1-1.3c-0.4-0.3-1-0.4-1.6-0.4c-0.5,0-1.1,0.2-1.6,0.6c-0.6,0.4-1.2,0.9-1.8,1.6L199.2,97.6z"/>
</g>
</svg>
