<?xml version="1.0" encoding="utf-8"?>
<!-- Generator: Adobe Illustrator 26.4.1, SVG Export Plug-In . SVG Version: 6.00 Build 0)  -->
<svg version="1.1" id="Layer_1" xmlns="http://www.w3.org/2000/svg" xmlns:xlink="http://www.w3.org/1999/xlink" x="0px" y="0px"
	 viewBox="0 0 226 42" style="enable-background:new 0 0 226 42;" xml:space="preserve">
<style type="text/css">
	.st0{fill:url(#App_Icon_Placeholder_00000098941218855147986920000013706774842589272240_);}
	.st1{fill:#D8D6CD;}
</style>
<symbol  id="Icon" viewBox="-512 -512 1024 1024">
	<g>
		
			<linearGradient id="App_Icon_Placeholder_00000119827370074680726370000009864450159663160705_" gradientUnits="userSpaceOnUse" x1="-443.9225" y1="443.9238" x2="443.9244" y2="-443.9231">
			<stop  offset="0" style="stop-color:#226F9D"/>
			<stop  offset="1" style="stop-color:#22A89D"/>
		</linearGradient>
		
			<path id="App_Icon_Placeholder_00000183948493694884583120000012875910455185012645_" style="fill:url(#App_Icon_Placeholder_00000119827370074680726370000009864450159663160705_);" d="
			M-155-512h310c102.8,0,154.2,0,209.5,17.5c60.4,22,108,69.6,130,130C512-309.2,512-257.8,512-155v310c0,102.8,0,154.2-17.5,209.5
			c-22,60.4-69.6,108-130,130C309.2,512,257.8,512,155,512h-310c-102.8,0-154.2,0-209.5-17.5c-60.4-22-108-69.6-130-130
			C-512,309.2-512,257.8-512,155v-310c0-102.8,0-154.2,17.5-209.5c22-60.4,69.6-108,130-130C-309.2-512-257.8-512-155-512L-155-512"
			/>
		<path class="st1" d="M-133.9-414.8c10.7-3.3,23.4,4.7,24.3,16c0.6,52.8,0.2,105.6,0.3,158.5v361.6c-0.2,7,3.5,14.3,9.6,17.7
			c29.8,17.5,59.9,34.8,89.7,52.3c6,3.3,13.6,4.4,19.6,0.6c30.6-17.9,61.3-35.6,91.8-53.8c6.4-3.6,8.8-11.3,8.8-18.3V17.6
			c0.2-7.4-3.6-14.7-10-18.3C71.2-17.5,42.4-34.4,13.5-51C7.1-54.8,0.4-60.6,0.2-68.7c-0.2-50,0-100.2,0-150.2
			c0-13.2,15.8-21.9,27.6-16.9c79.3,46.9,159.1,92.9,238.6,139.7c6,3.8,8.6,11,8.6,17.7v295.6c0.2,7-3.3,14.3-9.6,17.9
			c-83.1,48.8-166.3,97-249.4,145.8c-4.5,2.7-9.1,6.1-14.7,6c-5.2,0.5-9.9-1.7-14-4.5c-83.9-49.1-167.7-98-251.6-147
			c-6-3.5-9.9-10.2-9.9-16.9V-322c0.2-6.4,3.1-13.3,8.8-16.8c42.5-24.8,84.8-49.7,127.3-74.3C-136.6-413.7-135.3-414.5-133.9-414.8
			L-133.9-414.8z"/>
	</g>
</symbol>
<g id="App_Icon_and_Badge">
	<g id="Main-2">
		
			<use xlink:href="#Icon"  width="1024" height="1024" x="-512" y="-512" transform="matrix(3.540943e-02 0 0 3.540943e-02 21.1296 21)" style="overflow:visible;"/>
	</g>
</g>
<g>
	<path d="M59.7,10.7l7.1,18.8l-5,0.5l-1.4-4h-6.6l-1.3,3.8h-5.1l7.1-19H59.7z M57.1,16.8L55.3,22H59L57.1,16.8z"/>
	<path d="M78.6,20.8h-4v3.4c0,0.6,0.1,1,0.4,1.3c0.3,0.3,0.7,0.5,1.2,0.5c0.3,0,0.6,0,1-0.1c0.4-0.1,0.7-0.2,1-0.4l1.5,3.5
		c-0.2,0.2-0.5,0.4-1,0.6s-0.9,0.3-1.4,0.5c-0.5,0.1-1,0.2-1.4,0.2c-1.1,0-2.1-0.2-3.1-0.6s-1.8-1-2.4-1.8c-0.6-0.8-0.9-1.8-0.9-3
		v-3.9h-2.1v-4h2.1v-3.7l5.1-0.7v4.4h3.6L78.6,20.8z"/>
	<path d="M88,30.1c-1.5,0-2.8-0.3-3.9-0.8c-1.1-0.5-2-1.3-2.7-2.4c-0.7-1.1-1-2.4-1-4c0-1.5,0.3-2.8,1-3.9c0.7-1.1,1.6-1.9,2.8-2.5
		c1.2-0.6,2.5-0.9,3.9-0.9c1.5,0,2.8,0.3,4,0.8c1.2,0.6,2.1,1.4,2.7,2.5s1,2.4,1,4.1c0,1.5-0.4,2.8-1,3.8c-0.7,1-1.6,1.8-2.8,2.4
		C90.8,29.8,89.5,30.1,88,30.1z M88.1,25.9c0.5,0,1-0.1,1.4-0.3c0.4-0.2,0.6-0.5,0.8-1c0.2-0.4,0.3-1,0.3-1.6c0-0.6-0.1-1.2-0.3-1.6
		c-0.2-0.5-0.5-0.9-0.8-1.1c-0.3-0.3-0.8-0.4-1.3-0.4c-0.5,0-1,0.1-1.3,0.4c-0.4,0.2-0.7,0.6-0.9,1c-0.2,0.5-0.3,1-0.3,1.6
		c0,0.6,0.1,1.1,0.3,1.6c0.2,0.5,0.5,0.8,0.8,1.1C87.2,25.8,87.6,25.9,88.1,25.9z"/>
	<path d="M97.8,29.8V16.2h3l0.9,1.4c0.4-0.3,1-0.6,1.5-0.9c0.6-0.3,1.2-0.5,1.9-0.7c0.7-0.2,1.3-0.3,2-0.3c1.2,0,2.1,0.2,2.8,0.7
		c0.7,0.5,1.2,1.1,1.5,1.9c0.3,0.8,0.4,1.7,0.4,2.7v8.8h-5.1v-8.3c0-0.3,0-0.5-0.1-0.8c0-0.3-0.2-0.5-0.4-0.6
		c-0.2-0.1-0.5-0.2-0.9-0.2c-0.2,0-0.4,0-0.7,0.1c-0.3,0.1-0.6,0.2-1,0.3c-0.3,0.1-0.6,0.2-0.9,0.4v9.1H97.8z M110.7,17.6
		c0.4-0.3,1-0.6,1.5-0.9c0.6-0.3,1.2-0.5,1.9-0.7c0.7-0.2,1.3-0.3,2-0.3c1.2,0,2.1,0.2,2.8,0.7s1.2,1.1,1.5,1.9s0.4,1.7,0.4,2.7v8.8
		h-5.1v-8.3c0-0.3,0-0.5-0.1-0.8c0-0.3-0.2-0.5-0.4-0.6s-0.5-0.2-0.9-0.2c-0.2,0-0.4,0-0.7,0.1c-0.3,0.1-0.6,0.2-1,0.3
		c-0.3,0.1-0.6,0.2-0.9,0.4L110.7,17.6z"/>
	<path d="M124.2,13.5c-0.5-0.5-0.8-1.2-0.8-1.9c0-0.8,0.3-1.4,0.8-2c0.5-0.6,1.2-0.8,1.9-0.8c0.8,0,1.4,0.3,2,0.8
		c0.6,0.6,0.8,1.2,0.8,2c0,0.7-0.3,1.4-0.8,1.9c-0.6,0.5-1.2,0.8-2,0.8C125.4,14.3,124.7,14.1,124.2,13.5z M123.6,29.8V16.2h5.1
		v13.6H123.6z"/>
	<path d="M142.7,28.7c-0.5,0.4-1.1,0.7-1.7,0.9c-0.6,0.2-1.1,0.3-1.7,0.4c-0.5,0.1-1,0.1-1.3,0.1c-1.5,0-2.7-0.3-3.9-0.8
		c-1.1-0.6-2-1.4-2.6-2.4s-0.9-2.3-0.9-3.8c0-1.5,0.3-2.8,0.9-3.9s1.5-1.9,2.6-2.5s2.4-0.9,3.9-0.9c0.4,0,0.8,0,1.3,0.1
		c0.5,0.1,1.1,0.2,1.7,0.4c0.6,0.2,1.1,0.5,1.7,0.9l-1.4,3.5c-0.5-0.3-1-0.5-1.4-0.6c-0.4-0.1-0.8-0.2-1.3-0.2
		c-0.4,0-0.9,0.1-1.3,0.4c-0.4,0.3-0.7,0.6-1,1.1c-0.3,0.5-0.4,1-0.4,1.7c0,0.6,0.1,1.2,0.4,1.6c0.3,0.4,0.6,0.8,1,1
		c0.4,0.2,0.8,0.3,1.3,0.3s0.9-0.1,1.3-0.2c0.4-0.1,0.9-0.3,1.4-0.6L142.7,28.7z"/>
	<path d="M151.7,24.8c0.3,0.2,0.8,0.4,1.3,0.6c0.5,0.2,1.1,0.3,1.6,0.5c0.6,0.1,1.1,0.2,1.5,0.2c0.5,0,1-0.1,1.4-0.2
		c0.4-0.1,0.6-0.3,0.8-0.6s0.3-0.5,0.3-0.7c0-0.2-0.1-0.5-0.4-0.7s-0.7-0.5-1.1-0.7c-0.4-0.3-0.9-0.5-1.4-0.8
		c-0.6-0.4-1.3-0.8-1.9-1.2c-0.7-0.4-1.3-0.9-1.9-1.4c-0.6-0.5-1-1.1-1.4-1.7c-0.4-0.6-0.5-1.4-0.5-2.2c0-1,0.3-2,0.9-2.8
		c0.6-0.8,1.4-1.5,2.5-1.9c1.1-0.5,2.3-0.7,3.8-0.7c1,0,1.9,0.1,3,0.4c1,0.3,1.9,0.7,2.6,1.2l-1.5,3.4c-0.7-0.2-1.2-0.4-1.7-0.5
		c-0.4-0.1-0.8-0.2-1.2-0.2c-0.4,0-0.7-0.1-1.2-0.1c-0.6,0-1,0.1-1.4,0.4c-0.3,0.3-0.5,0.6-0.5,0.9c0,0.3,0.1,0.5,0.4,0.7
		c0.3,0.2,0.6,0.4,1.1,0.7c0.4,0.2,0.9,0.5,1.4,0.8c0.7,0.4,1.3,0.8,2,1.2c0.7,0.4,1.3,0.9,1.9,1.4c0.6,0.5,1,1.1,1.4,1.7
		c0.3,0.6,0.5,1.3,0.5,2.1c0,1.1-0.3,2-0.9,2.9c-0.6,0.8-1.5,1.5-2.6,2c-1.1,0.5-2.5,0.7-4.1,0.7c-0.5,0-1,0-1.6-0.1
		c-0.6-0.1-1.1-0.2-1.7-0.3c-0.6-0.1-1.1-0.3-1.6-0.5c-0.5-0.2-1-0.4-1.3-0.6L151.7,24.8z"/>
	<path d="M177.7,29.8l-2.1-7l-2.1,7h-4.6L164.7,17l4.7-1.3l2,8.2l1.9-7.7h4.8l2,7.7l1.8-7.7h5.1l-4.5,13.6H177.7z"/>
	<path d="M188.5,17c0.5-0.2,1-0.4,1.7-0.6c0.6-0.2,1.3-0.4,2.1-0.5c0.7-0.1,1.5-0.2,2.2-0.2c1.2,0,2.3,0.2,3.1,0.7
		c0.8,0.5,1.5,1.1,1.9,2s0.6,1.8,0.6,3v8.4h-2.5l-1.5-1.4c-0.4,0.5-0.9,1-1.4,1.3c-0.5,0.3-1.1,0.4-1.6,0.4c-1.7,0-3-0.4-3.8-1.3
		s-1.3-2-1.3-3.4c0-1.5,0.5-2.5,1.5-3.1c1-0.6,2.3-0.9,3.8-0.9h1.6l0-0.1c-0.1-0.5-0.3-0.9-0.6-1.1c-0.3-0.2-0.7-0.3-1.1-0.3
		c-0.5,0-1,0.1-1.7,0.2s-1.2,0.3-1.7,0.6L188.5,17z M192.4,25.8c0.1,0.1,0.2,0.3,0.3,0.3s0.3,0.1,0.5,0.1c0.3,0,0.6-0.1,0.9-0.2
		c0.3-0.1,0.6-0.3,0.9-0.6v-1.3h-1.6c-0.3,0-0.6,0.1-0.8,0.3c-0.2,0.2-0.3,0.5-0.3,0.8C192.3,25.5,192.3,25.7,192.4,25.8z"/>
	<path d="M202.9,35.9V16.2h2.5l2.5,2.5v16.9L202.9,35.9z M204.9,18.2c0.3-0.4,0.8-0.8,1.3-1.2c0.5-0.4,1.1-0.7,1.8-0.9
		s1.3-0.4,2-0.4c1.3,0,2.5,0.3,3.6,0.8c1,0.5,1.9,1.3,2.5,2.3c0.6,1,0.9,2.4,0.9,4c0,1.6-0.3,2.9-0.9,4c-0.6,1.1-1.4,1.9-2.5,2.4
		c-1.1,0.5-2.3,0.8-3.8,0.8c-0.6,0-1.1-0.1-1.7-0.3c-0.6-0.2-1.1-0.4-1.6-0.8c-0.5-0.4-1.1-0.8-1.6-1.4l1.4-3
		c0.5,0.5,1.1,0.9,1.6,1.2c0.5,0.3,1,0.4,1.5,0.4c0.4,0,0.8-0.1,1.1-0.4c0.3-0.3,0.6-0.6,0.8-1.1s0.3-1.1,0.3-1.8s-0.1-1.3-0.3-1.8
		c-0.2-0.5-0.5-0.8-0.8-1.1c-0.4-0.2-0.8-0.4-1.4-0.4c-0.4,0-0.9,0.2-1.4,0.5c-0.5,0.3-1,0.8-1.5,1.3L204.9,18.2z"/>
</g>
</svg>
