<?xml version="1.0" encoding="utf-8"?>
<!-- Generator: Adobe Illustrator 26.4.1, SVG Export Plug-In . SVG Version: 6.00 Build 0)  -->
<svg version="1.1" id="Layer_1" xmlns="http://www.w3.org/2000/svg" xmlns:xlink="http://www.w3.org/1999/xlink" x="0px" y="0px"
	 viewBox="0 0 56 40" style="enable-background:new 0 0 56 40;" xml:space="preserve">
<style type="text/css">
	.st0{fill:url(#App_Icon_Placeholder_00000051366353102676579860000017934977626161765047_);}
	.st1{fill:#D8D6CD;}
</style>
<symbol  id="Icon" viewBox="-512 -512 1024 1024">
	<g>
		
			<linearGradient id="App_Icon_Placeholder_00000045617929052377904340000001102339913693575592_" gradientUnits="userSpaceOnUse" x1="-443.9225" y1="443.9238" x2="443.9244" y2="-443.9231">
			<stop  offset="0" style="stop-color:#226F9D"/>
			<stop  offset="1" style="stop-color:#22A89D"/>
		</linearGradient>
		
			<path id="App_Icon_Placeholder_00000183948493694884583120000012875910455185012645_" style="fill:url(#App_Icon_Placeholder_00000045617929052377904340000001102339913693575592_);" d="
			M-155-512h310c102.8,0,154.2,0,209.5,17.5c60.4,22,108,69.6,130,130C512-309.2,512-257.8,512-155v310c0,102.8,0,154.2-17.5,209.5
			c-22,60.4-69.6,108-130,130C309.2,512,257.8,512,155,512h-310c-102.8,0-154.2,0-209.5-17.5c-60.4-22-108-69.6-130-130
			C-512,309.2-512,257.8-512,155v-310c0-102.8,0-154.2,17.5-209.5c22-60.4,69.6-108,130-130C-309.2-512-257.8-512-155-512L-155-512"
			/>
		<path class="st1" d="M-133.9-414.8c10.7-3.3,23.4,4.7,24.3,16c0.6,52.8,0.2,105.6,0.3,158.5v361.6c-0.2,7,3.5,14.3,9.6,17.7
			c29.8,17.5,59.9,34.8,89.7,52.3c6,3.3,13.6,4.4,19.6,0.6c30.6-17.9,61.3-35.6,91.8-53.8c6.4-3.6,8.8-11.3,8.8-18.3V17.6
			c0.2-7.4-3.6-14.7-10-18.3C71.2-17.5,42.4-34.4,13.5-51C7.1-54.8,0.4-60.6,0.2-68.7c-0.2-50,0-100.2,0-150.2
			c0-13.2,15.8-21.9,27.6-16.9c79.3,46.9,159.1,92.9,238.6,139.7c6,3.8,8.6,11,8.6,17.7v295.6c0.2,7-3.3,14.3-9.6,17.9
			c-83.1,48.8-166.3,97-249.4,145.8c-4.5,2.7-9.1,6.1-14.7,6c-5.2,0.5-9.9-1.7-14-4.5c-83.9-49.1-167.7-98-251.6-147
			c-6-3.5-9.9-10.2-9.9-16.9V-322c0.2-6.4,3.1-13.3,8.8-16.8c42.5-24.8,84.8-49.7,127.3-74.3C-136.6-413.7-135.3-414.5-133.9-414.8
			L-133.9-414.8z"/>
	</g>
</symbol>
<g id="App_Icon_and_Badge">
	<g id="Main-2">
		
			<use xlink:href="#Icon"  width="1024" height="1024" x="-512" y="-512" transform="matrix(3.540943e-02 0 0 3.540943e-02 28 20)" style="overflow:visible;"/>
	</g>
</g>
</svg>
